<?xml version="1.0" encoding="utf-8"?>
<!-- Generator: Adobe Illustrator 23.0.6, SVG Export Plug-In . SVG Version: 6.00 Build 0)  -->
<svg version="1.1" id="Layer_1" xmlns="http://www.w3.org/2000/svg" xmlns:xlink="http://www.w3.org/1999/xlink" x="0px" y="0px"
	 viewBox="0 0 300 169" style="enable-background:new 0 0 300 169;" xml:space="preserve">
<style type="text/css">
	.st0{fill:#FFFFFF;}
	.st1{fill:none;stroke:#DDDDDD;}
	.st2{opacity:0.7;fill:#4C78A8;enable-background:new    ;}
	.st3{opacity:0.7;fill:#72B7B2;enable-background:new    ;}
	.st4{opacity:0.7;fill:#54A24B;enable-background:new    ;}
	.st5{opacity:0.7;fill:#F58518;enable-background:new    ;}
	.st6{opacity:0.7;fill:#E45756;enable-background:new    ;}
	.st7{fill:none;}
	.st8{font-family:'Helvetica';}
	.st9{font-size:10px;}
	.st10{opacity:0.7;fill-opacity:0.7;enable-background:new    ;}
	.st11{font-family:'Helvetica-Bold';}
	.st12{font-size:11px;}
	.st13{fill:none;stroke:#888888;}
</style>
<rect class="st0" width="300" height="169"/>
<g transform="translate(119,5)">
	<g>
		<g transform="translate(0,0)">
			<path class="st1" d="M0.5,0.5h100v120H0.5V0.5z"/>
			<g>
				<g>
					<path class="st2" d="M11.8,90c0,1-0.8,1.8-1.8,1.8S8.2,91,8.2,90S9,88.2,10,88.2S11.8,89,11.8,90"/>
					<path class="st2" d="M17.5,10c0,4.2-3.4,7.5-7.5,7.5S2.5,14.2,2.5,10S5.8,2.5,10,2.5S17.5,5.8,17.5,10"/>
					<path class="st2" d="M18.3,110c0,4.6-3.7,8.3-8.3,8.3s-8.3-3.7-8.3-8.3s3.7-8.3,8.3-8.3S18.3,105.4,18.3,110"/>
					<path class="st2" d="M15.5,70c0,3.1-2.5,5.5-5.5,5.5S4.5,73.1,4.5,70c0,0,0,0,0,0c0-3.1,2.5-5.5,5.5-5.5S15.5,66.9,15.5,70
						C15.5,70,15.5,70,15.5,70"/>
					<path class="st2" d="M15.5,50c0,3-2.5,5.5-5.5,5.5c-3,0-5.5-2.5-5.5-5.5c0,0,0,0,0,0c0-3,2.5-5.5,5.5-5.5
						C13,44.5,15.5,47,15.5,50C15.5,50,15.5,50,15.5,50"/>
					<path class="st2" d="M12.4,30c0,1.3-1.1,2.4-2.4,2.4S7.6,31.3,7.6,30s1.1-2.4,2.4-2.4S12.4,28.7,12.4,30"/>
					<path class="st3" d="M70.5,90c0,0.3-0.2,0.5-0.5,0.5s-0.5-0.2-0.5-0.5s0.2-0.5,0.5-0.5S70.5,89.7,70.5,90"/>
					<path class="st3" d="M72.3,10c0,1.2-1,2.3-2.3,2.3c-1.2,0-2.3-1-2.3-2.3c0,0,0,0,0,0c0-1.2,1-2.3,2.3-2.3
						C71.2,7.7,72.3,8.8,72.3,10C72.3,10,72.3,10,72.3,10"/>
					<path class="st3" d="M71.4,110c0,0.8-0.6,1.4-1.4,1.4s-1.4-0.6-1.4-1.4s0.6-1.4,1.4-1.4S71.4,109.2,71.4,110"/>
					<path class="st3" d="M71.8,70c0,1-0.8,1.8-1.8,1.8S68.2,71,68.2,70s0.8-1.8,1.8-1.8S71.8,69,71.8,70"/>
					<path class="st3" d="M71.3,50c0,0.7-0.6,1.3-1.3,1.3s-1.3-0.6-1.3-1.3s0.6-1.3,1.3-1.3S71.3,49.3,71.3,50"/>
					<path class="st3" d="M70.5,30c0,0.3-0.2,0.5-0.5,0.5c-0.3,0-0.5-0.2-0.5-0.5c0,0,0,0,0,0c0-0.3,0.2-0.5,0.5-0.5
						C70.3,29.5,70.5,29.7,70.5,30C70.5,30,70.5,30,70.5,30"/>
					<path class="st4" d="M90.1,90C90.1,90,90,90.1,90.1,90c-0.1,0.1-0.1,0-0.1,0S90,89.9,90.1,90C90,89.9,90.1,90,90.1,90"/>
					<path class="st4" d="M94.2,10c0,2.3-1.9,4.2-4.2,4.2c-2.3,0-4.2-1.9-4.2-4.2c0,0,0,0,0,0c0-2.3,1.9-4.2,4.2-4.2
						C92.3,5.8,94.2,7.7,94.2,10C94.2,10,94.2,10,94.2,10"/>
					<path class="st4" d="M91.4,110c0,0.8-0.6,1.4-1.4,1.4s-1.4-0.6-1.4-1.4s0.6-1.4,1.4-1.4S91.4,109.2,91.4,110"/>
					<path class="st4" d="M91.2,70c0,0.6-0.5,1.2-1.2,1.2s-1.2-0.5-1.2-1.2s0.5-1.2,1.2-1.2S91.2,69.4,91.2,70"/>
					<path class="st4" d="M90.4,50c0,0.2-0.2,0.4-0.4,0.4c-0.2,0-0.4-0.2-0.4-0.4c0,0,0,0,0,0c0-0.2,0.2-0.4,0.4-0.4
						C90.2,49.6,90.4,49.8,90.4,50C90.4,50,90.4,50,90.4,50"/>
					<path class="st4" d="M90.8,30c0,0.4-0.4,0.8-0.8,0.8c-0.4,0-0.8-0.4-0.8-0.8c0,0,0,0,0,0c0-0.4,0.4-0.8,0.8-0.8
						C90.4,29.2,90.8,29.6,90.8,30C90.8,30,90.8,30,90.8,30"/>
					<path class="st5" d="M30.1,90C30.1,90,30,90.1,30.1,90c-0.1,0.1-0.2,0-0.2,0c0,0,0,0,0,0C29.9,90,30,89.9,30.1,90
						C30,89.9,30.1,90,30.1,90C30.1,90,30.1,90,30.1,90"/>
					<path class="st5" d="M30.6,10c0,0.3-0.3,0.6-0.6,0.6c-0.3,0-0.6-0.3-0.6-0.6c0,0,0,0,0,0c0-0.3,0.3-0.6,0.6-0.6
						C30.3,9.4,30.6,9.7,30.6,10C30.6,10,30.6,10,30.6,10"/>
					<path class="st5" d="M30.7,110c0,0.4-0.3,0.7-0.7,0.7s-0.7-0.3-0.7-0.7s0.3-0.7,0.7-0.7S30.7,109.6,30.7,110"/>
					<path class="st5" d="M30.7,70c0,0.4-0.3,0.7-0.7,0.7c-0.4,0-0.7-0.3-0.7-0.7c0,0,0,0,0,0c0-0.4,0.3-0.7,0.7-0.7
						C30.4,69.3,30.7,69.6,30.7,70C30.7,70,30.7,70,30.7,70"/>
					<path class="st5" d="M30.8,50c0,0.4-0.3,0.8-0.8,0.8c-0.4,0-0.8-0.3-0.8-0.8c0,0,0,0,0,0c0-0.4,0.3-0.8,0.8-0.8
						C30.4,49.2,30.8,49.6,30.8,50C30.8,50,30.8,50,30.8,50"/>
					<path class="st5" d="M30.5,30c0,0.3-0.2,0.5-0.5,0.5c-0.3,0-0.5-0.2-0.5-0.5c0,0,0,0,0,0c0-0.3,0.2-0.5,0.5-0.5
						C30.3,29.5,30.5,29.7,30.5,30C30.5,30,30.5,30,30.5,30"/>
					<path class="st6" d="M50.5,90c0,0.3-0.2,0.5-0.5,0.5s-0.5-0.2-0.5-0.5s0.2-0.5,0.5-0.5S50.5,89.7,50.5,90"/>
					<path class="st6" d="M59.5,10c0,5.2-4.3,9.5-9.5,9.5s-9.5-4.3-9.5-9.5s4.3-9.5,9.5-9.5S59.5,4.8,59.5,10"/>
					<path class="st6" d="M54.7,110c0,2.6-2.1,4.7-4.7,4.7s-4.7-2.1-4.7-4.7c0,0,0,0,0,0c0-2.6,2.1-4.7,4.7-4.7S54.7,107.4,54.7,110
						C54.7,110,54.7,110,54.7,110"/>
					<path class="st6" d="M56.8,70c0,3.8-3,6.8-6.8,6.8s-6.8-3-6.8-6.8s3-6.8,6.8-6.8S56.8,66.2,56.8,70"/>
					<path class="st6" d="M52.3,50c0,1.3-1,2.3-2.3,2.3s-2.3-1-2.3-2.3s1-2.3,2.3-2.3S52.3,48.7,52.3,50"/>
					<path class="st6" d="M51.3,30c0,0.7-0.6,1.3-1.3,1.3s-1.3-0.6-1.3-1.3s0.6-1.3,1.3-1.3S51.3,29.3,51.3,30"/>
				</g>
				<g>
					<g transform="translate(118,0)">
						<path class="st7" d="M0,0h48v63H0V0z"/>
						<g>
							<g>
								<g transform="translate(0,0)">
									<path class="st7" d="M0,0L0,0L0,0L0,0z"/>
									<g>
										<g>
											<g transform="translate(0,0)">
												<path class="st7" d="M0,0h47.1v11H0V0z"/>
												<g>
													<g>
														<path class="st2" d="M11,6c0,2.8-2.2,5-5,5S1,8.8,1,6s2.2-5,5-5S11,3.2,11,6"/>
													</g>
													<g>
														<text transform="matrix(1 0 0 1 16 9)" class="st8 st9">Cattle</text>
													</g>
												</g>
											</g>
											<g transform="translate(0,13)">
												<path class="st7" d="M0,0h47.1v11H0V0z"/>
												<g>
													<g>
														<path class="st5" d="M11,6c0,2.8-2.2,5-5,5S1,8.8,1,6s2.2-5,5-5S11,3.2,11,6"/>
													</g>
													<g>
														<text transform="matrix(1 0 0 1 16 9)" class="st8 st9">Goats</text>
													</g>
												</g>
											</g>
											<g transform="translate(0,26)">
												<path class="st7" d="M0,0h47.1v11H0V0z"/>
												<g>
													<g>
														<path class="st6" d="M11,6c0,2.8-2.2,5-5,5S1,8.8,1,6s2.2-5,5-5S11,3.2,11,6"/>
													</g>
													<g>
														<text transform="matrix(1 0 0 1 16 9)" class="st8 st9">Poultry</text>
													</g>
												</g>
											</g>
											<g transform="translate(0,39)">
												<path class="st7" d="M0,0h47.1v11H0V0z"/>
												<g>
													<g>
														<path class="st3" d="M11,6c0,2.8-2.2,5-5,5S1,8.8,1,6s2.2-5,5-5S11,3.2,11,6"/>
													</g>
													<g>
														<text transform="matrix(1 0 0 1 16 9)" class="st8 st9">Sheep</text>
													</g>
												</g>
											</g>
											<g transform="translate(0,52)">
												<path class="st7" d="M0,0h47.1v11H0V0z"/>
												<g>
													<g>
														<path class="st4" d="M11,6c0,2.8-2.2,5-5,5S1,8.8,1,6s2.2-5,5-5S11,3.2,11,6"/>
													</g>
													<g>
														<text transform="matrix(1 0 0 1 16 9)" class="st8 st9">Swine</text>
													</g>
												</g>
											</g>
										</g>
									</g>
								</g>
							</g>
						</g>
					</g>
				</g>
				<g>
					<g transform="translate(118,71)">
						<path class="st7" d="M0,0h58v72H0V0z"/>
						<g>
							<g>
								<g transform="translate(0,16)">
									<path class="st7" d="M0,0L0,0L0,0L0,0z"/>
									<g>
										<g>
											<g transform="translate(0,0)">
												<path class="st7" d="M0,0h53.6v12.4H0V0z"/>
												<g>
													<g>
														<path class="st10" d="M14.4,6c0,2.7-2.2,4.9-4.9,4.9c-2.7,0-4.9-2.2-4.9-4.9c0,0,0,0,0,0c0-2.7,2.2-4.9,4.9-4.9
															S14.4,3.3,14.4,6C14.4,6,14.4,6,14.4,6"/>
													</g>
													<g>
														<text transform="matrix(1 0 0 1 23 9)" class="st8 st9">20,000</text>
													</g>
												</g>
											</g>
											<g transform="translate(0,16)">
												<path class="st7" d="M0,0h53.6v16.4H0V0z"/>
												<g>
													<g>
														<path class="st10" d="M16.4,8c0,3.8-3.1,6.9-6.9,6.9S2.6,11.8,2.6,8s3.1-6.9,6.9-6.9S16.4,4.2,16.4,8"/>
													</g>
													<g>
														<text transform="matrix(1 0 0 1 23 11)" class="st8 st9">40,000</text>
													</g>
												</g>
											</g>
											<g transform="translate(0,36)">
												<path class="st7" d="M0,0h53.6v19.4H0V0z"/>
												<g>
													<g>
														<path class="st10" d="M17.9,9.5c0,4.7-3.8,8.4-8.4,8.4s-8.4-3.8-8.4-8.4s3.8-8.4,8.4-8.4S17.9,4.8,17.9,9.5"/>
													</g>
													<g>
														<text transform="matrix(1 0 0 1 23 12.5)" class="st8 st9">60,000</text>
													</g>
												</g>
											</g>
										</g>
									</g>
								</g>
							</g>
							<g>
								<text transform="matrix(1 0 0 1 0 9)" class="st11 st12">Head, 2018</text>
							</g>
						</g>
					</g>
				</g>
				<g>
					<g transform="translate(0.5,120.5)">
						<path class="st7" d="M0,0L0,0L0,0L0,0z"/>
						<g>
							<g>
								<line class="st13" x1="10" y1="0" x2="10" y2="5"/>
								<line class="st13" x1="30" y1="0" x2="30" y2="5"/>
								<line class="st13" x1="50" y1="0" x2="50" y2="5"/>
								<line class="st13" x1="70" y1="0" x2="70" y2="5"/>
								<line class="st13" x1="90" y1="0" x2="90" y2="5"/>
							</g>
							<g>
								<text transform="matrix(-1.836970e-16 -1 1 -1.836970e-16 13 33.123)" class="st8 st9">Cattle</text>
								<text transform="matrix(-1.836970e-16 -1 1 -1.836970e-16 33 33.6797)" class="st8 st9">Goats</text>
								<text transform="matrix(-1.836970e-16 -1 1 -1.836970e-16 53 38.123)" class="st8 st9">Poultry</text>
								<text transform="matrix(-1.836970e-16 -1 1 -1.836970e-16 73 35.916)" class="st8 st9">Sheep</text>
								<text transform="matrix(-1.836970e-16 -1 1 -1.836970e-16 93 34.2363)" class="st8 st9">Swine</text>
							</g>
							<g>
								<line class="st13" x1="0" y1="0" x2="100" y2="0"/>
							</g>
						</g>
					</g>
				</g>
				<g>
					<g transform="translate(0.5,0.5)">
						<path class="st7" d="M0,0L0,0L0,0L0,0z"/>
						<g>
							<g>
								<line class="st13" x1="0" y1="10" x2="-5" y2="10"/>
								<line class="st13" x1="0" y1="30" x2="-5" y2="30"/>
								<line class="st13" x1="0" y1="50" x2="-5" y2="50"/>
								<line class="st13" x1="0" y1="70" x2="-5" y2="70"/>
								<line class="st13" x1="0" y1="90" x2="-5" y2="90"/>
								<line class="st13" x1="0" y1="110" x2="-5" y2="110"/>
							</g>
							<g>
								<text transform="matrix(1 0 0 1 -55.3447 13)" class="st8 st9">CASCADE</text>
								<text transform="matrix(1 0 0 1 -58.4941 33)" class="st8 st9">FLATHEAD</text>
								<text transform="matrix(1 0 0 1 -54.6123 53)" class="st8 st9">GALLATIN</text>
								<text transform="matrix(1 0 0 1 -97.5859 73)" class="st8 st9">LEWIS AND CLARK</text>
								<text transform="matrix(1 0 0 1 -68.499 93)" class="st8 st9">SILVER BOW</text>
								<text transform="matrix(1 0 0 1 -82.9521 113)" class="st8 st9">YELLOWSTONE</text>
							</g>
							<g>
								<line class="st13" x1="0" y1="0" x2="0" y2="120"/>
							</g>
							<g>
								<text transform="matrix(6.123234e-17 -1 1 6.123234e-17 -104.1333 78.9414)" class="st11 st12">County</text>
							</g>
						</g>
					</g>
				</g>
			</g>
		</g>
	</g>
</g>
</svg>
